<svg width="352" height="144" viewBox="0 0 352 144" fill="none" xmlns="http://www.w3.org/2000/svg">
<g clip-path="url(#clip0_2036_9223)">
<path d="M139.735 70.1501H128.932C128.932 59.5839 128.972 49.1782 128.917 38.7734C128.882 32.5461 123.954 26.3525 118.692 25.724C111.342 24.8449 105.313 30.1757 105.262 37.7632C105.193 48.3782 105.245 58.9941 105.245 69.9664H94.7744V17.1374C103.886 16.7274 113.014 15.7528 122.077 16.168C126.046 16.3498 129.884 19.37 133.972 21.1861C138.125 19.511 142.837 17.1323 147.819 15.6969C158.949 12.4899 172.362 22.1129 173.198 33.5573C173.259 34.3979 173.213 35.2456 173.213 36.0892C173.214 47.2239 173.213 58.3585 173.213 69.9084H163.424C163.424 60.4042 163.517 50.6827 163.362 40.9652C163.321 38.3531 162.883 35.6222 161.997 33.1746C160.203 28.2214 153.837 24.7606 149.126 25.7727C143.851 26.9057 139.857 31.7025 139.758 37.2628C139.662 42.6635 139.737 48.0675 139.735 53.4704C139.735 58.851 139.735 64.2315 139.735 70.1501H139.735Z" fill="white"/>
<path fill-rule="evenodd" clip-rule="evenodd" d="M39.4873 47.0051C41.3299 59.6859 55.9924 66.0279 66.0885 58.0402C71.4113 53.8292 75.468 54.22 80.9114 56.0423C80.0322 61.6808 75.674 64.7375 71.3768 66.8623C60.907 72.0377 50.3865 72.714 39.7645 66.1303C26.9466 58.1865 25.2563 38.6662 32.6114 27.9406C39.4894 17.9105 49.5175 14.0933 61.109 16.139C71.6548 17.9997 79.5977 24.5508 82.2129 35.116C84.9864 46.3188 87.0005 47.3238 73.7837 47.0527C62.4856 46.8223 51.1793 47.005 39.4873 47.005L39.4873 47.0051ZM39.41 38.9384H71.817C71.0983 31.9325 65.2345 26.0443 58.9271 25.7154C47.6605 25.1266 41.3175 29.2493 39.41 38.9384Z" fill="white"/>
<path fill-rule="evenodd" clip-rule="evenodd" d="M235.733 46.905H192.486C193.028 57.8985 205.125 64.3755 216.215 59.8853C217.29 59.4508 218.718 59.2051 219.314 58.3868C223.362 52.8306 228.399 53.6591 233.689 56.0864C232.273 63.5318 217.054 72.5439 207.915 71.2595C186.396 68.2373 179.572 54.5433 180.964 40.9436C182.66 24.3889 195.219 13.7597 213.764 16.051C225.648 17.52 238.622 29.8791 235.733 46.905ZM225.115 39.0568C223.609 30.7503 216.358 24.6104 206.174 25.6277C199.622 26.2825 193.494 31.6245 192.118 39.0568H225.115Z" fill="white"/>
<path d="M351.738 70.0731H340.955C340.955 59.2368 340.962 48.6452 340.953 38.0537C340.946 30.4579 336.57 25.7088 329.606 25.713C322.066 25.717 317.298 30.5757 317.275 38.3685C317.244 48.8077 317.267 59.247 317.267 70.004H307.776V0H317.288V16.3863C323.782 16.3863 329.865 15.4757 335.554 16.5853C345.719 18.569 350.721 26.4571 351.518 35.9695C352.455 47.164 351.738 58.4967 351.738 70.0731L351.738 70.0731Z" fill="white"/>
<path d="M242.592 46.7743C245.597 45.9093 248.43 45.093 251.835 44.1134C254.187 54.7314 260.127 61.8885 271.552 61.3576C277.727 61.0703 283.225 58.0317 286.064 51.0594C282.643 51.6106 279.774 52.0726 276.446 52.6096V44.4261C281.998 43.4129 287.788 42.019 293.655 41.5013C295.293 41.3571 297.983 43.4251 298.762 45.1296C300.946 49.9132 302.385 55.0359 304.26 60.4358C301.927 61.6976 299.653 62.9291 296.972 64.3798L294.187 58.5303C285.398 68.8853 274.878 74.0313 261.729 69.7227C251.05 66.2234 244.752 58.4744 242.592 46.7743Z" fill="white"/>
<path d="M0.13782 5.02246H10.6797V16.8424H24.8406V25.6442H10.9568C10.9568 34.7423 10.2817 43.5066 11.1893 52.1043C11.8126 58.0087 16.8693 61.0452 22.8519 61.8482V72.8448C16.8135 69.648 10.9913 67.7282 6.81075 63.9801C3.53367 61.0411 0.642357 55.9194 0.433276 51.6282C-0.320029 36.2063 0.13782 20.7245 0.13782 5.02246Z" fill="white"/>
</g>
<path d="M71.7893 116.259C71.7893 110.767 69.3713 107.796 64.6045 107.796C61.5648 107.796 59.1123 108.936 57.3506 111.043L55.2781 109.212C57.7306 106.242 60.8739 104.895 64.8463 104.895C71.582 104.895 75.0363 108.798 75.0363 115.879V126H71.7893V116.259ZM56.867 126V116.086L60.114 115.637V126H56.867ZM79.4259 105.275H82.6729V117.019L79.4259 117.468V105.275ZM104.336 112.114C104.336 115.914 101.331 118.366 96.9092 118.919C99.3962 119.817 101.054 122.062 101.054 126H97.7036C97.7036 121.648 95.5966 119.644 91.2442 119.541V117.019H94.353C98.3945 117.019 101.123 115.257 101.089 112.356C101.054 109.489 98.4981 107.796 94.7676 107.796C91.6587 107.796 89.2753 108.625 87.3755 110.007L85.9593 107.831C87.9627 106.276 90.9334 104.929 94.8712 104.929C100.743 104.929 104.336 107.796 104.336 112.114ZM108.107 105.275H111.354V117.019L108.107 117.468V105.275ZM126.867 105.275H130.114V117.019L126.867 117.468V105.275ZM151.051 115.499V126H147.804V115.672C147.804 110.352 145.421 107.762 141.172 107.762C138.616 107.762 136.474 108.832 134.851 110.076L133.4 107.865C135.645 106.104 138.443 104.929 141.552 104.929C147.217 104.929 151.051 108.038 151.051 115.499ZM164.129 126.449C158.845 126.449 154.734 123.582 154.734 119.057C154.734 115.223 157.566 112.667 161.055 112.667C163.197 112.667 165.097 113.599 166.064 114.843L164.82 116.777C164.129 115.948 162.955 115.326 161.504 115.326C159.363 115.326 157.912 116.777 157.912 119.092C157.912 121.475 160.33 123.582 163.991 123.582C168.447 123.582 171.66 120.301 171.66 115.637C171.66 111.078 168.067 107.693 163.508 107.693C160.641 107.693 158.223 108.625 156.668 110.18L155.252 107.796C157.325 105.965 160.33 104.826 163.577 104.826C170.174 104.826 174.872 109.282 174.872 115.637C174.872 121.924 170.382 126.449 164.129 126.449ZM197.694 126H195.103L182.184 110.387V126H179.041V105.275H181.597L194.516 120.888V105.275H197.694V126ZM228.75 116.259C228.75 110.767 226.332 107.796 221.565 107.796C218.526 107.796 216.073 108.936 214.312 111.043L212.239 109.212C214.692 106.242 217.835 104.895 221.807 104.895C228.543 104.895 231.997 108.798 231.997 115.879V126H228.75V116.259ZM213.828 126V116.086L217.075 115.637V126H213.828ZM248.954 101.268C244.913 98.8497 240.388 99.2642 240.388 105.24V126H237.141V104.687C237.141 96.3282 244.878 95.4646 250.198 98.9534L248.954 101.268ZM259.733 105.275V126H256.486V105.275H259.733ZM271.35 119.402C271.35 124.342 269.727 126 265.167 126H262.68V123.237H264.235C267.24 123.237 268.104 122.269 268.104 118.573V105.275H271.35V119.402ZM286.935 104.86C292.738 104.86 296.572 108.798 296.572 114.532V126H293.325V114.532C293.325 110.491 290.838 107.796 286.935 107.796C283.101 107.796 280.614 110.491 280.614 114.532V121.613C280.614 124.687 279.474 126 276.503 126H273.74V123.237H274.845C276.745 123.237 277.367 122.58 277.367 120.439V114.532C277.367 108.798 281.166 104.86 286.935 104.86Z" fill="white"/>
<path d="M57.3506 111.043L57.0196 111.418L57.4047 111.758L57.7342 111.364L57.3506 111.043ZM55.2781 109.212L54.8925 108.894L54.5846 109.267L54.947 109.587L55.2781 109.212ZM75.0363 126V126.5H75.5363V126H75.0363ZM71.7893 126H71.2893V126.5H71.7893V126ZM56.867 126H56.367V126.5H56.867V126ZM56.867 116.086L56.7985 115.591L56.367 115.651V116.086H56.867ZM60.114 115.637H60.614V115.063L60.0455 115.142L60.114 115.637ZM60.114 126V126.5H60.614V126H60.114ZM72.2893 116.259C72.2893 113.45 71.6722 111.2 70.3673 109.646C69.0495 108.077 67.0966 107.296 64.6045 107.296V108.296C66.8792 108.296 68.5187 109 69.6016 110.29C70.6974 111.594 71.2893 113.576 71.2893 116.259H72.2893ZM64.6045 107.296C61.4262 107.296 58.8296 108.495 56.967 110.722L57.7342 111.364C59.3949 109.378 61.7034 108.296 64.6045 108.296V107.296ZM57.6816 110.668L55.6091 108.838L54.947 109.587L57.0196 111.418L57.6816 110.668ZM55.6636 109.531C58.0115 106.687 61.0072 105.395 64.8463 105.395V104.395C60.7406 104.395 57.4497 105.797 54.8925 108.894L55.6636 109.531ZM64.8463 105.395C68.1171 105.395 70.5134 106.34 72.0986 108.069C73.6906 109.806 74.5363 112.413 74.5363 115.879H75.5363C75.5363 112.264 74.6549 109.378 72.8358 107.394C71.0099 105.401 68.3112 104.395 64.8463 104.395V105.395ZM74.5363 115.879V126H75.5363V115.879H74.5363ZM75.0363 125.5H71.7893V126.5H75.0363V125.5ZM72.2893 126V116.259H71.2893V126H72.2893ZM57.367 126V116.086H56.367V126H57.367ZM56.9355 116.582L60.1825 116.133L60.0455 115.142L56.7985 115.591L56.9355 116.582ZM59.614 115.637V126H60.614V115.637H59.614ZM60.114 125.5H56.867V126.5H60.114V125.5ZM79.4259 105.275V104.775H78.9259V105.275H79.4259ZM82.6729 105.275H83.1729V104.775H82.6729V105.275ZM82.6729 117.019L82.7414 117.514L83.1729 117.455V117.019H82.6729ZM79.4259 117.468H78.9259V118.042L79.4944 117.963L79.4259 117.468ZM79.4259 105.775H82.6729V104.775H79.4259V105.775ZM82.1729 105.275V117.019H83.1729V105.275H82.1729ZM82.6044 116.524L79.3574 116.973L79.4944 117.963L82.7414 117.514L82.6044 116.524ZM79.9259 117.468V105.275H78.9259V117.468H79.9259ZM96.9092 118.919L96.8472 118.423L96.7394 119.389L96.9092 118.919ZM101.054 126V126.5H101.554V126H101.054ZM97.7036 126H97.2036V126.5H97.7036V126ZM91.2442 119.541H90.7442V120.029L91.2323 120.04L91.2442 119.541ZM91.2442 117.019V116.519H90.7442V117.019H91.2442ZM101.089 112.356L101.589 112.35L101.589 112.35L101.089 112.356ZM87.3755 110.007L86.9564 110.28L87.2437 110.721L87.6696 110.411L87.3755 110.007ZM85.9593 107.831L85.6528 107.436L85.2892 107.718L85.5402 108.103L85.9593 107.831ZM103.836 112.114C103.836 113.868 103.148 115.296 101.949 116.36C100.739 117.433 98.9865 118.155 96.8472 118.423L96.9712 119.415C99.2532 119.13 101.214 118.349 102.612 117.108C104.021 115.858 104.836 114.159 104.836 112.114H103.836ZM96.7394 119.389C97.8858 119.803 98.8284 120.521 99.4898 121.584C100.154 122.652 100.554 124.1 100.554 126H101.554C101.554 123.962 101.125 122.319 100.339 121.055C99.5495 119.787 98.4196 118.933 97.079 118.449L96.7394 119.389ZM101.054 125.5H97.7036V126.5H101.054V125.5ZM98.2036 126C98.2036 123.75 97.6588 122.008 96.4575 120.821C95.2596 119.638 93.4973 119.094 91.2561 119.041L91.2323 120.04C93.3435 120.091 94.8109 120.6 95.7547 121.533C96.695 122.462 97.2036 123.898 97.2036 126H98.2036ZM91.7442 119.541V117.019H90.7442V119.541H91.7442ZM91.2442 117.519H94.353V116.519H91.2442V117.519ZM94.353 117.519C96.4379 117.519 98.2388 117.066 99.5302 116.189C100.839 115.3 101.608 113.983 101.589 112.35L100.589 112.362C100.604 113.63 100.026 114.644 98.9686 115.362C97.8939 116.091 96.3097 116.519 94.353 116.519V117.519ZM101.589 112.35C101.569 110.749 100.837 109.462 99.6021 108.592C98.3834 107.734 96.7008 107.296 94.7676 107.296V108.296C96.5649 108.296 98.0256 108.705 99.0263 109.41C100.011 110.103 100.574 111.096 100.589 112.362L101.589 112.35ZM94.7676 107.296C91.5623 107.296 89.0739 108.153 87.0814 109.603L87.6696 110.411C89.4768 109.097 91.7552 108.296 94.7676 108.296V107.296ZM87.7946 109.734L86.3783 107.558L85.5402 108.103L86.9564 110.28L87.7946 109.734ZM86.2658 108.226C88.1892 106.733 91.0536 105.429 94.8712 105.429V104.429C90.8131 104.429 87.7363 105.819 85.6528 107.436L86.2658 108.226ZM94.8712 105.429C97.7319 105.429 99.98 106.128 101.501 107.299C103.008 108.459 103.836 110.108 103.836 112.114H104.836C104.836 109.802 103.867 107.858 102.111 106.506C100.367 105.164 97.8826 104.429 94.8712 104.429V105.429ZM108.107 105.275V104.775H107.607V105.275H108.107ZM111.354 105.275H111.854V104.775H111.354V105.275ZM111.354 117.019L111.423 117.514L111.854 117.455V117.019H111.354ZM108.107 117.468H107.607V118.042L108.176 117.963L108.107 117.468ZM108.107 105.775H111.354V104.775H108.107V105.775ZM110.854 105.275V117.019H111.854V105.275H110.854ZM111.286 116.524L108.039 116.973L108.176 117.963L111.423 117.514L111.286 116.524ZM108.607 117.468V105.275H107.607V117.468H108.607ZM126.867 105.275V104.775H126.367V105.275H126.867ZM130.114 105.275H130.614V104.775H130.114V105.275ZM130.114 117.019L130.182 117.514L130.614 117.455V117.019H130.114ZM126.867 117.468H126.367V118.042L126.935 117.963L126.867 117.468ZM126.867 105.775H130.114V104.775H126.867V105.775ZM129.614 105.275V117.019H130.614V105.275H129.614ZM130.045 116.524L126.798 116.973L126.935 117.963L130.182 117.514L130.045 116.524ZM127.367 117.468V105.275H126.367V117.468H127.367ZM151.051 126V126.5H151.551V126H151.051ZM147.804 126H147.304V126.5H147.804V126ZM134.851 110.076L134.433 110.35L134.728 110.8L135.155 110.473L134.851 110.076ZM133.4 107.865L133.091 107.472L132.73 107.756L132.982 108.14L133.4 107.865ZM150.551 115.499V126H151.551V115.499H150.551ZM151.051 125.5H147.804V126.5H151.051V125.5ZM148.304 126V115.672H147.304V126H148.304ZM148.304 115.672C148.304 112.947 147.695 110.834 146.461 109.396C145.215 107.945 143.401 107.262 141.172 107.262V108.262C143.191 108.262 144.694 108.873 145.702 110.048C146.722 111.235 147.304 113.077 147.304 115.672H148.304ZM141.172 107.262C138.471 107.262 136.225 108.393 134.547 109.679L135.155 110.473C136.723 109.271 138.76 108.262 141.172 108.262V107.262ZM135.269 109.802L133.818 107.591L132.982 108.14L134.433 110.35L135.269 109.802ZM133.709 108.259C135.881 106.554 138.573 105.429 141.552 105.429V104.429C138.313 104.429 135.409 105.653 133.091 107.472L133.709 108.259ZM141.552 105.429C144.296 105.429 146.523 106.181 148.068 107.765C149.614 109.351 150.551 111.849 150.551 115.499H151.551C151.551 111.688 150.571 108.901 148.784 107.067C146.995 105.232 144.473 104.429 141.552 104.429V105.429ZM166.064 114.843L166.484 115.113L166.676 114.815L166.459 114.536L166.064 114.843ZM164.82 116.777L164.436 117.097L164.872 117.621L165.241 117.048L164.82 116.777ZM156.668 110.18L156.239 110.435L156.567 110.988L157.022 110.533L156.668 110.18ZM155.252 107.796L154.921 107.421L154.611 107.696L154.822 108.052L155.252 107.796ZM164.129 125.949C161.572 125.949 159.336 125.255 157.752 124.052C156.179 122.856 155.234 121.151 155.234 119.057H154.234C154.234 121.488 155.345 123.479 157.147 124.848C158.94 126.21 161.402 126.949 164.129 126.949V125.949ZM155.234 119.057C155.234 115.51 157.832 113.167 161.055 113.167V112.167C157.301 112.167 154.234 114.936 154.234 119.057H155.234ZM161.055 113.167C163.067 113.167 164.811 114.046 165.669 115.15L166.459 114.536C165.383 113.152 163.327 112.167 161.055 112.167V113.167ZM165.643 114.572L164.4 116.507L165.241 117.048L166.484 115.113L165.643 114.572ZM165.204 116.457C164.416 115.511 163.099 114.826 161.504 114.826V115.826C162.811 115.826 163.843 116.385 164.436 117.097L165.204 116.457ZM161.504 114.826C160.317 114.826 159.283 115.231 158.546 115.994C157.809 116.755 157.412 117.829 157.412 119.092H158.412C158.412 118.04 158.74 117.231 159.264 116.689C159.788 116.147 160.55 115.826 161.504 115.826V114.826ZM157.412 119.092C157.412 121.861 160.179 124.082 163.991 124.082V123.082C160.481 123.082 158.412 121.088 158.412 119.092H157.412ZM163.991 124.082C168.738 124.082 172.16 120.562 172.16 115.637H171.16C171.16 120.039 168.157 123.082 163.991 123.082V124.082ZM172.16 115.637C172.16 110.785 168.326 107.193 163.508 107.193V108.193C167.808 108.193 171.16 111.371 171.16 115.637H172.16ZM163.508 107.193C160.537 107.193 157.982 108.159 156.315 109.826L157.022 110.533C158.464 109.091 160.744 108.193 163.508 108.193V107.193ZM157.098 109.924L155.682 107.541L154.822 108.052L156.239 110.435L157.098 109.924ZM155.583 108.171C157.557 106.427 160.442 105.326 163.577 105.326V104.326C160.218 104.326 157.092 105.504 154.921 107.421L155.583 108.171ZM163.577 105.326C166.762 105.326 169.457 106.4 171.353 108.21C173.248 110.018 174.372 112.588 174.372 115.637H175.372C175.372 112.331 174.148 109.495 172.044 107.486C169.942 105.48 166.99 104.326 163.577 104.326V105.326ZM174.372 115.637C174.372 121.651 170.102 125.949 164.129 125.949V126.949C170.661 126.949 175.372 122.197 175.372 115.637H174.372ZM197.694 126V126.5H198.194V126H197.694ZM195.103 126L194.718 126.319L194.868 126.5H195.103V126ZM182.184 110.387L182.57 110.068L181.684 108.998V110.387H182.184ZM182.184 126V126.5H182.684V126H182.184ZM179.041 126H178.541V126.5H179.041V126ZM179.041 105.275V104.775H178.541V105.275H179.041ZM181.597 105.275L181.982 104.956L181.832 104.775H181.597V105.275ZM194.516 120.888L194.131 121.206L195.016 122.276V120.888H194.516ZM194.516 105.275V104.775H194.016V105.275H194.516ZM197.694 105.275H198.194V104.775H197.694V105.275ZM197.694 125.5H195.103V126.5H197.694V125.5ZM195.488 125.681L182.57 110.068L181.799 110.706L194.718 126.319L195.488 125.681ZM181.684 110.387V126H182.684V110.387H181.684ZM182.184 125.5H179.041V126.5H182.184V125.5ZM179.541 126V105.275H178.541V126H179.541ZM179.041 105.775H181.597V104.775H179.041V105.775ZM181.212 105.593L194.131 121.206L194.901 120.569L181.982 104.956L181.212 105.593ZM195.016 120.888V105.275H194.016V120.888H195.016ZM194.516 105.775H197.694V104.775H194.516V105.775ZM197.194 105.275V126H198.194V105.275H197.194ZM214.312 111.043L213.981 111.418L214.366 111.758L214.695 111.364L214.312 111.043ZM212.239 109.212L211.853 108.894L211.546 109.267L211.908 109.587L212.239 109.212ZM231.997 126V126.5H232.497V126H231.997ZM228.75 126H228.25V126.5H228.75V126ZM213.828 126H213.328V126.5H213.828V126ZM213.828 116.086L213.759 115.591L213.328 115.651V116.086H213.828ZM217.075 115.637H217.575V115.063L217.006 115.142L217.075 115.637ZM217.075 126V126.5H217.575V126H217.075ZM229.25 116.259C229.25 113.45 228.633 111.2 227.328 109.646C226.01 108.077 224.058 107.296 221.565 107.296V108.296C223.84 108.296 225.48 109 226.563 110.29C227.658 111.594 228.25 113.576 228.25 116.259H229.25ZM221.565 107.296C218.387 107.296 215.791 108.495 213.928 110.722L214.695 111.364C216.356 109.378 218.664 108.296 221.565 108.296V107.296ZM214.643 110.668L212.57 108.838L211.908 109.587L213.981 111.418L214.643 110.668ZM212.625 109.531C214.972 106.687 217.968 105.395 221.807 105.395V104.395C217.702 104.395 214.411 105.797 211.853 108.894L212.625 109.531ZM221.807 105.395C225.078 105.395 227.474 106.34 229.06 108.069C230.651 109.806 231.497 112.413 231.497 115.879H232.497C232.497 112.264 231.616 109.378 229.797 107.394C227.971 105.401 225.272 104.395 221.807 104.395V105.395ZM231.497 115.879V126H232.497V115.879H231.497ZM231.997 125.5H228.75V126.5H231.997V125.5ZM229.25 126V116.259H228.25V126H229.25ZM214.328 126V116.086H213.328V126H214.328ZM213.896 116.582L217.143 116.133L217.006 115.142L213.759 115.591L213.896 116.582ZM216.575 115.637V126H217.575V115.637H216.575ZM217.075 125.5H213.828V126.5H217.075V125.5ZM248.954 101.268L248.698 101.697L249.147 101.966L249.395 101.504L248.954 101.268ZM240.388 126V126.5H240.888V126H240.388ZM237.141 126H236.641V126.5H237.141V126ZM250.198 98.9534L250.638 99.19L250.855 98.7865L250.472 98.5353L250.198 98.9534ZM249.211 100.839C247.134 99.5957 244.833 99.0169 242.997 99.6321C242.064 99.9446 241.274 100.56 240.726 101.508C240.182 102.447 239.888 103.687 239.888 105.24H240.888C240.888 103.805 241.16 102.753 241.591 102.009C242.017 101.274 242.611 100.816 243.315 100.58C244.751 100.099 246.734 100.522 248.698 101.697L249.211 100.839ZM239.888 105.24V126H240.888V105.24H239.888ZM240.388 125.5H237.141V126.5H240.388V125.5ZM237.641 126V104.687H236.641V126H237.641ZM237.641 104.687C237.641 102.675 238.106 101.156 238.848 100.053C239.588 98.9534 240.624 98.2353 241.826 97.854C244.248 97.0854 247.357 97.688 249.924 99.3715L250.472 98.5353C247.72 96.7299 244.3 96.0199 241.523 96.9008C240.126 97.3441 238.895 98.1912 238.018 99.4952C237.143 100.797 236.641 102.521 236.641 104.687H237.641ZM249.758 98.7167L248.514 101.031L249.395 101.504L250.638 99.19L249.758 98.7167ZM259.733 105.275H260.233V104.775H259.733V105.275ZM259.733 126V126.5H260.233V126H259.733ZM256.486 126H255.986V126.5H256.486V126ZM256.486 105.275V104.775H255.986V105.275H256.486ZM259.233 105.275V126H260.233V105.275H259.233ZM259.733 125.5H256.486V126.5H259.733V125.5ZM256.986 126V105.275H255.986V126H256.986ZM256.486 105.775H259.733V104.775H256.486V105.775ZM262.68 126H262.18V126.5H262.68V126ZM262.68 123.237V122.737H262.18V123.237H262.68ZM268.104 105.275V104.775H267.604V105.275H268.104ZM271.35 105.275H271.85V104.775H271.35V105.275ZM270.85 119.402C270.85 121.845 270.443 123.324 269.605 124.21C268.776 125.087 267.41 125.5 265.167 125.5V126.5C267.484 126.5 269.21 126.084 270.332 124.897C271.446 123.719 271.85 121.9 271.85 119.402H270.85ZM265.167 125.5H262.68V126.5H265.167V125.5ZM263.18 126V123.237H262.18V126H263.18ZM262.68 123.737H264.235V122.737H262.68V123.737ZM264.235 123.737C265.758 123.737 266.933 123.5 267.679 122.613C268.398 121.757 268.604 120.418 268.604 118.573H267.604C267.604 120.425 267.377 121.418 266.913 121.969C266.476 122.49 265.717 122.737 264.235 122.737V123.737ZM268.604 118.573V105.275H267.604V118.573H268.604ZM268.104 105.775H271.35V104.775H268.104V105.775ZM270.85 105.275V119.402H271.85V105.275H270.85ZM296.572 126V126.5H297.072V126H296.572ZM293.325 126H292.825V126.5H293.325V126ZM273.74 126H273.24V126.5H273.74V126ZM273.74 123.237V122.737H273.24V123.237H273.74ZM286.935 105.36C289.72 105.36 291.996 106.303 293.574 107.898C295.154 109.493 296.072 111.779 296.072 114.532H297.072C297.072 111.551 296.074 109.001 294.285 107.194C292.496 105.386 289.953 104.36 286.935 104.36V105.36ZM296.072 114.532V126H297.072V114.532H296.072ZM296.572 125.5H293.325V126.5H296.572V125.5ZM293.825 126V114.532H292.825V126H293.825ZM293.825 114.532C293.825 112.409 293.171 110.594 291.958 109.306C290.742 108.014 289.006 107.296 286.935 107.296V108.296C288.767 108.296 290.226 108.925 291.23 109.991C292.236 111.06 292.825 112.614 292.825 114.532H293.825ZM286.935 107.296C284.895 107.296 283.177 108.016 281.971 109.307C280.768 110.595 280.114 112.409 280.114 114.532H281.114C281.114 112.613 281.703 111.06 282.702 109.99C283.698 108.924 285.14 108.296 286.935 108.296V107.296ZM280.114 114.532V121.613H281.114V114.532H280.114ZM280.114 121.613C280.114 123.108 279.833 124.047 279.305 124.621C278.786 125.184 277.928 125.5 276.503 125.5V126.5C278.049 126.5 279.246 126.16 280.04 125.298C280.825 124.446 281.114 123.193 281.114 121.613H280.114ZM276.503 125.5H273.74V126.5H276.503V125.5ZM274.24 126V123.237H273.24V126H274.24ZM273.74 123.737H274.845V122.737H273.74V123.737ZM274.845 123.737C275.825 123.737 276.645 123.574 277.188 122.977C277.717 122.396 277.867 121.525 277.867 120.439H276.867C276.867 121.494 276.705 122.022 276.449 122.304C276.205 122.571 275.765 122.737 274.845 122.737V123.737ZM277.867 120.439V114.532H276.867V120.439H277.867ZM277.867 114.532C277.867 111.777 278.778 109.491 280.344 107.896C281.91 106.302 284.168 105.36 286.935 105.36V104.36C283.933 104.36 281.407 105.387 279.631 107.195C277.856 109.003 276.867 111.553 276.867 114.532H277.867Z" fill="white"/>
<defs>
<clipPath id="clip0_2036_9223">
<rect width="352" height="72.8447" fill="white"/>
</clipPath>
</defs>
</svg>
