<svg xmlns="http://www.w3.org/2000/svg" xmlns:xlink="http://www.w3.org/1999/xlink" width="156.1" height="87.196" viewBox="0 0 156.1 87.196">
  <defs>
    <clipPath id="clip-path">
      <rect id="Rectangle_1179" data-name="Rectangle 1179" width="156.1" height="47.162" transform="translate(1716.95 36.804)" fill="#fff"/>
    </clipPath>
    <clipPath id="clip-path-2">
      <rect id="Rectangle_1177" data-name="Rectangle 1177" width="30.569" height="42.798" transform="translate(1769.82 38.983)" fill="#fff"/>
    </clipPath>
    <clipPath id="clip-path-3">
      <rect id="Rectangle_1178" data-name="Rectangle 1178" width="42.652" height="47.162" transform="translate(1807.71 36.804)" fill="#fff"/>
    </clipPath>
    <clipPath id="clip-path-4">
      <rect id="Rectangle_1173" data-name="Rectangle 1173" width="62.29" height="12.891" transform="translate(1449.83 38.38)" fill="#fff"/>
    </clipPath>
    <clipPath id="clip-path-5">
      <rect id="Rectangle_1172" data-name="Rectangle 1172" width="62.29" height="12.891" transform="translate(0 0)" fill="#fff"/>
    </clipPath>
  </defs>
  <g id="Group_2275" data-name="Group 2275" transform="translate(-1696.9 -38.402)">
    <g id="Group_2274" data-name="Group 2274" transform="translate(-20.05 1.598)" clip-path="url(#clip-path)">
      <g id="Group_2272" data-name="Group 2272" clip-path="url(#clip-path-2)">
        <path id="Path_953" data-name="Path 953" d="M1800.39,43.569a4.585,4.585,0,1,0-9.17,0v17.88l-1.33-2.087a4.582,4.582,0,1,0-7.73,4.924l9.78,15.371a.192.192,0,0,0,.04.057l.06.1q.1.141.21.272l.03.036a2.537,2.537,0,0,0,.27.3.145.145,0,0,0,.04.036,4.4,4.4,0,0,0,.63.524.219.219,0,0,1,.05.034c.11.071.22.139.33.2l.03.013a3.562,3.562,0,0,0,.34.165,1.1,1.1,0,0,0,.11.047c.11.046.22.088.34.125.03.01.06.018.09.027.1.029.2.054.3.076.04.008.08.017.11.025.13.025.26.044.38.058l.09.007c.14.013.28.022.42.022s.28-.009.43-.022l.08-.009c.13-.014.26-.034.39-.059l.03-.005c.13-.027.26-.062.39-.1.04-.011.07-.024.11-.035q.135-.046.27-.1l.12-.048c.12-.051.23-.105.35-.166.03-.015.05-.033.08-.049.07-.039.14-.078.21-.121.01-.009.03-.021.04-.03a2.654,2.654,0,0,0,.22-.156c.05-.039.11-.077.16-.117s.11-.1.16-.144.12-.106.18-.162c.04-.038.07-.08.11-.12a2.7,2.7,0,0,0,.19-.21c.03-.037.06-.076.09-.113.06-.078.12-.156.18-.238.03-.049.06-.1.09-.152a2.331,2.331,0,0,0,.14-.22c.04-.073.07-.151.11-.227a1.276,1.276,0,0,1,.08-.164,2.746,2.746,0,0,0,.1-.277.731.731,0,0,0,.05-.135c.03-.089.05-.181.08-.273.01-.054.03-.107.04-.161.01-.078.03-.158.04-.237l.03-.217c.01-.064.01-.13.02-.194,0-.09.01-.18.01-.271V43.569Z" fill="#373cf5"/>
        <path id="Path_954" data-name="Path 954" d="M1769.82,77.2a4.585,4.585,0,1,0,9.17,0V59.316l5.79,9.13a4.587,4.587,0,0,0,7.74-4.924l-14.24-22.415a.206.206,0,0,1-.04-.057c-.02-.033-.05-.066-.07-.1a3.222,3.222,0,0,0-.2-.273l-.03-.036c-.09-.106-.18-.206-.28-.3l-.03-.035a4.449,4.449,0,0,0-.64-.525.219.219,0,0,0-.05-.034c-.11-.071-.22-.139-.33-.2-.01,0-.01-.009-.02-.013-.11-.06-.23-.114-.34-.165-.04-.016-.08-.031-.11-.046-.12-.046-.23-.089-.35-.125l-.09-.027q-.15-.043-.3-.076c-.03-.008-.07-.017-.11-.025-.13-.025-.25-.043-.38-.058l-.08-.007c-.14-.013-.28-.022-.43-.022s-.28.009-.42.023l-.08.008c-.13.015-.26.034-.39.059l-.03.005c-.13.027-.27.062-.4.1-.03.011-.07.023-.1.035-.1.03-.19.064-.28.1-.04.016-.08.031-.12.049a3.452,3.452,0,0,0-.34.166c-.03.015-.06.033-.09.049a2.184,2.184,0,0,0-.2.121c-.02.009-.03.02-.05.03-.07.049-.14.1-.22.157-.05.038-.1.076-.15.117s-.11.1-.17.143-.12.106-.18.162a1.334,1.334,0,0,1-.11.12c-.06.069-.13.137-.19.21-.03.036-.06.076-.09.113-.06.079-.12.157-.17.238a1.234,1.234,0,0,0-.1.152c-.04.072-.09.144-.13.219a2.1,2.1,0,0,0-.11.227,1.175,1.175,0,0,0-.08.164c-.04.09-.07.184-.11.277a.762.762,0,0,1-.05.136,2.515,2.515,0,0,0-.07.272c-.01.053-.03.106-.04.161a1.889,1.889,0,0,0-.04.236,1.617,1.617,0,0,0-.04.217c0,.064-.01.13-.01.194-.01.09-.01.18-.02.271V77.2Z" fill="#373cf5"/>
      </g>
      <path id="Path_955" data-name="Path 955" d="M1757.76,38.983a4.591,4.591,0,0,0-4.59,4.586V77.2a4.585,4.585,0,1,0,9.17,0V43.569A4.582,4.582,0,0,0,1757.76,38.983Z" fill="#373cf5"/>
      <path id="Path_956" data-name="Path 956" d="M1745.7,43.5a4.585,4.585,0,1,0-9.17,0v17.88L1735.2,59.3a4.587,4.587,0,0,0-7.74,4.924l9.78,15.372c.01.019.03.037.04.057s.05.065.07.1a3.228,3.228,0,0,0,.2.272l.03.036c.09.106.18.206.27.3a.144.144,0,0,1,.04.036,4.478,4.478,0,0,0,.64.524.205.205,0,0,0,.05.034c.11.071.22.139.33.2.01,0,.01.009.02.014.11.06.23.114.34.164.04.016.08.031.11.047.12.046.23.088.34.125.04.01.07.018.1.027.1.028.2.053.29.076l.12.025c.12.025.25.044.38.058l.08.008c.14.013.28.021.43.021s.28-.009.42-.022l.08-.009c.13-.014.26-.033.39-.059l.03-.006c.13-.027.26-.061.39-.1a1.093,1.093,0,0,0,.11-.035c.1-.031.19-.065.28-.1l.12-.048c.11-.051.23-.105.34-.166l.09-.048a2.079,2.079,0,0,0,.2-.122.136.136,0,0,0,.04-.03c.08-.049.15-.1.23-.156.05-.039.1-.077.15-.117s.11-.1.17-.144a2.162,2.162,0,0,0,.17-.162c.04-.039.08-.08.12-.12.06-.069.13-.138.19-.211a.729.729,0,0,0,.08-.113,1.636,1.636,0,0,0,.18-.238,1.25,1.25,0,0,0,.1-.152c.04-.073.09-.145.13-.22a2.1,2.1,0,0,0,.11-.227,1.2,1.2,0,0,0,.08-.164c.04-.09.07-.183.11-.277a.748.748,0,0,1,.05-.135c.02-.089.05-.181.07-.272.01-.054.03-.107.04-.161a1.9,1.9,0,0,0,.04-.236c.01-.072.03-.144.04-.217s.01-.13.01-.195a2.468,2.468,0,0,0,.01-.27c0-.017.01-.034.01-.052Z" fill="#373cf5"/>
      <path id="Path_957" data-name="Path 957" d="M1716.95,43.5a4.585,4.585,0,1,1,9.17,0v17.88l1.33-2.087a4.587,4.587,0,0,1,7.74,4.924l-9.79,15.372-.03.057a.606.606,0,0,0-.07.1c-.07.094-.13.185-.2.272l-.03.036a4,4,0,0,1-.28.3l-.03.036a4.478,4.478,0,0,1-.64.524c-.02.012-.03.023-.05.034-.11.071-.22.139-.33.2-.01,0-.02.009-.02.014-.12.06-.23.114-.35.164a.985.985,0,0,1-.11.047c-.11.046-.22.088-.34.125l-.09.027q-.15.042-.3.076c-.04.008-.07.017-.11.025-.13.025-.25.044-.38.058l-.08.008c-.15.013-.29.021-.43.021s-.28-.009-.42-.022l-.09-.009c-.13-.014-.26-.033-.39-.059l-.03-.006c-.13-.027-.26-.061-.39-.1-.03-.011-.07-.023-.11-.035-.09-.031-.18-.065-.27-.1l-.12-.048c-.12-.051-.23-.105-.35-.166a.6.6,0,0,0-.08-.048c-.07-.039-.14-.078-.21-.122a.137.137,0,0,0-.04-.03c-.07-.049-.15-.1-.22-.156-.05-.039-.1-.077-.16-.117s-.11-.1-.16-.144-.12-.106-.18-.162c-.04-.039-.07-.08-.11-.12a2.8,2.8,0,0,1-.19-.211c-.03-.037-.06-.076-.09-.113-.06-.078-.12-.156-.18-.238-.03-.049-.06-.1-.09-.152a2.26,2.26,0,0,1-.13-.22c-.04-.074-.08-.151-.12-.227-.02-.055-.05-.109-.07-.164a2.8,2.8,0,0,1-.11-.277c-.02-.045-.03-.09-.05-.135a2.576,2.576,0,0,1-.07-.272.933.933,0,0,1-.04-.161c-.02-.078-.03-.157-.05-.236l-.03-.217a1.265,1.265,0,0,1-.01-.195,2.453,2.453,0,0,1-.02-.27V43.5Z" fill="#373cf5"/>
      <g id="Group_2273" data-name="Group 2273" clip-path="url(#clip-path-3)">
        <path id="Path_958" data-name="Path 958" d="M1832.86,80.782v3.184h-11.1v-2.2h-9.47a4.5,4.5,0,0,1-3.23-1.341,4.668,4.668,0,0,1-.56-.663v-.015a5.335,5.335,0,0,1-.59-1.2,4.278,4.278,0,0,1-.19-1.341V49.053a7.03,7.03,0,0,0,4.57,1.673h4.59V72.594h9.58a1.213,1.213,0,0,1,.22.015c.22-.007.43-.037.66-.051l-1.36,1.349Z" fill="#373cf5"/>
        <path id="Path_959" data-name="Path 959" d="M1850.36,55.193v10.5h-3.18a21.7,21.7,0,0,1-1.51,4.046,10.208,10.208,0,0,1-7.15-7.4,12.642,12.642,0,0,0,.17-1.953,12.243,12.243,0,0,0-12.02-12.22c-.07,0-.14.007-.21.007h-14.17a4.584,4.584,0,0,1,0-9.169h7.11V36.8h11.09v2.572a20.948,20.948,0,0,1,7.02,2.69l2-2,.86.848v.007l5.55,5.55c.19.265.37.531.56.8.06-.015.14-.022.21-.037l.24.251-2.05,2.049a20.629,20.629,0,0,1,2.34,5.66Z" fill="#373cf5"/>
        <path id="Path_960" data-name="Path 960" d="M1846.69,47.234c-.07.015-.15.022-.21.037-.19-.272-.37-.538-.56-.8Z" fill="#373cf5"/>
      </g>
      <path id="Path_961" data-name="Path 961" d="M1869.99,55.4a21.049,21.049,0,0,0-2.46-6l1.62-1.636.53-.53-.53-.523-6.16-6.169-.53-.53-.53.53-1.57,1.592a21.411,21.411,0,0,0-6.12-2.543c.08.015.16.029.23.044V36.8h-10.79v2.911l-.01.007c-.38.1-.74.209-1.09.322L1849.54,47a13.389,13.389,0,1,1-13.49,16.02c-.05-.258-.08-.508-.12-.767l.06-.332a8.871,8.871,0,0,0,.14-1.533,9.822,9.822,0,0,0-.19-1.894c0,.015-.01.022-.01.037V58.5a9.719,9.719,0,0,0-6.11-7.164,22.478,22.478,0,0,0-1.41,3.987.959.959,0,0,1,.04-.162h-3.12V65.371h3.04a21.231,21.231,0,0,0,1.64,4.511c.26.516.54,1.024.83,1.518l-1.6,1.606-.53.531.53.523,6.17,6.168.52.531,2.12-2.115c.37.228.77.45,1.16.656a21.047,21.047,0,0,0,4.71,1.821v2.845h10.79V81.056a21.293,21.293,0,0,0,5.63-2.418l1.59,1.592.53.531.53-.531,6.16-6.169.53-.523-2.15-2.152a20.967,20.967,0,0,0,2.4-5.771h2.37v.007h.75V55.4Z" fill="#04e6e0"/>
    </g>
    <g id="Group_2271" data-name="Group 2271" transform="translate(303.9 -159.402)">
      <text id="זירת_שיתופי_פעולה_של" data-name="זירת שיתופי פעולה
של" transform="translate(1526 261)" fill="#19294d" font-size="18" font-family="'PloniDL1\.1AAA-D-Bold', 'Ploni DL \31 \.1 AAA'" font-weight="700"><tspan x="-132" y="0">זירת שיתופי פעולה</tspan><tspan y="0"></tspan><tspan x="-21" y="18">של</tspan></text>
      <g id="Group_2266" data-name="Group 2266" transform="translate(-15 227.62)" clip-path="url(#clip-path-4)">
        <g id="Group_2265" data-name="Group 2265" transform="translate(1449.83 38.38)" clip-path="url(#clip-path-5)">
          <path id="Path_938" data-name="Path 938" d="M1514.5,57.145h-1.911c0-1.87.006-3.711,0-5.552a2.388,2.388,0,0,0-1.81-2.309,2.088,2.088,0,0,0-2.378,2.13c-.012,1.878,0,3.757,0,5.7h-1.851V47.763c1.612-.073,3.227-.245,4.833-.172a6.758,6.758,0,0,1,2.1.888,24.993,24.993,0,0,1,2.452-.971,3.765,3.765,0,0,1,4.49,3.161c.012.149,0,.3,0,.448V57.1h-1.73c0-1.682.015-3.4-.012-5.122a4.364,4.364,0,0,0-.242-1.379,2.18,2.18,0,0,0-2.277-1.31,2.13,2.13,0,0,0-1.659,2.033c-.015.956,0,1.912,0,2.868v2.952Z" transform="translate(-1489.768 -44.731)" fill="#19294d"/>
          <path id="Path_939" data-name="Path 939" d="M1468.724,53.273a2.935,2.935,0,0,0,4.705,1.953,2.4,2.4,0,0,1,2.623-.354,2.666,2.666,0,0,1-1.686,1.915,5.411,5.411,0,0,1-5.6-.13c-2.269-1.406-2.567-4.86-1.266-6.758a4.764,4.764,0,0,1,5.046-2.088,4.421,4.421,0,0,1,3.732,3.358c.491,1.982.849,2.16-1.49,2.112-2-.041-4-.008-6.069-.008Zm-.015-1.427h5.735a2.608,2.608,0,0,0-2.28-2.34c-1.993-.1-3.117.625-3.454,2.34Z" transform="translate(-1461.735 -44.955)" fill="#19294d" fill-rule="evenodd"/>
          <path id="Path_940" data-name="Path 940" d="M1567.729,53.313h-7.654a2.931,2.931,0,0,0,4.2,2.3c.192-.077.444-.12.55-.265.716-.983,1.606-.837,2.543-.407-.251,1.318-2.946,2.912-4.56,2.685-3.809-.535-5.016-2.958-4.771-5.365.3-2.93,2.523-4.811,5.806-4.405A4.7,4.7,0,0,1,1567.729,53.313Zm-1.878-1.389a2.975,2.975,0,0,0-5.841,0Z" transform="translate(-1526.013 -45.012)" fill="#19294d" fill-rule="evenodd"/>
          <path id="Path_941" data-name="Path 941" d="M1641.768,50.78h-1.908V45.114a1.954,1.954,0,0,0-2.008-2.184,2.061,2.061,0,0,0-2.183,2.24c-.006,1.847,0,3.695,0,5.6h-1.68V38.38h1.683v2.9a17.625,17.625,0,0,1,3.232.035,3.5,3.5,0,0,1,2.824,3.43c.166,1.981.038,3.986.038,6.035Z" transform="translate(-1579.525 -38.38)" fill="#19294d"/>
          <path id="Path_942" data-name="Path 942" d="M1594.99,64.141l1.635-.471c.414,1.879,1.467,3.145,3.487,3.052a2.772,2.772,0,0,0,2.57-1.822l-1.7.274V63.726c.982-.179,2.008-.426,3.046-.518a1.214,1.214,0,0,1,.9.642c.387.846.642,1.753.973,2.709l-1.289.7-.491-1.035c-1.556,1.832-3.419,2.743-5.744,1.981a4.854,4.854,0,0,1-3.386-4.061Z" transform="translate(-1552.059 -55.864)" fill="#19294d"/>
          <path id="Path_943" data-name="Path 943" d="M1449.854,41.385h1.866v2.092h2.505v1.558h-2.455a44.725,44.725,0,0,0,.041,4.682c.109,1.045,1,1.582,2.061,1.724v1.946a14.339,14.339,0,0,1-2.836-1.569,3.527,3.527,0,0,1-1.13-2.186c-.133-2.729-.053-5.469-.053-8.247Z" transform="translate(-1449.83 -40.496)" fill="#19294d"/>
        </g>
      </g>
    </g>
  </g>
</svg>
