<svg width="212" height="44" viewBox="0 0 212 44" fill="none" xmlns="http://www.w3.org/2000/svg">
<g clip-path="url(#clip0_2033_740)">
<g clip-path="url(#clip1_2033_740)">
<path d="M84.4413 42.3534H77.9769C77.9769 36.0312 78.0012 29.805 77.9678 23.5794C77.9471 19.8533 74.9987 16.1474 71.8503 15.7713C67.4519 15.2453 63.8449 18.435 63.8145 22.975C63.7726 29.3263 63.8042 35.6783 63.8042 42.2435H57.5391V10.6336C62.9908 10.3883 68.4523 9.80515 73.8756 10.0536C76.25 10.1623 78.5468 11.9695 80.9929 13.0561C83.4779 12.0538 86.297 10.6306 89.2783 9.7717C95.9377 7.85282 103.963 13.6107 104.464 20.4584C104.5 20.9613 104.472 21.4685 104.472 21.9733C104.473 28.6357 104.472 35.298 104.472 42.2088H98.6152C98.6152 36.522 98.6711 30.7052 98.5782 24.8908C98.5533 23.3279 98.2915 21.6939 97.7612 20.2293C96.6879 17.2657 92.8786 15.1949 90.0601 15.8005C86.9039 16.4784 84.5142 19.3485 84.4546 22.6755C84.3976 25.907 84.4419 29.1404 84.4413 32.3732C84.4413 35.5927 84.4413 38.812 84.4413 42.3534L84.4413 42.3534Z" fill="#19294D"/>
<path fill-rule="evenodd" clip-rule="evenodd" d="M24.458 28.5045C25.5605 36.092 34.3337 39.8867 40.3747 35.1074C43.5595 32.5878 45.9868 32.8216 49.2439 33.9119C48.7178 37.2857 46.1101 39.1146 43.5389 40.386C37.2743 43.4827 30.9794 43.8873 24.6238 39.948C16.9543 35.1949 15.9429 23.515 20.3438 17.0975C24.4592 11.096 30.4595 8.812 37.3952 10.036C43.7053 11.1494 48.4579 15.0692 50.0226 21.3908C51.6821 28.0939 52.8873 28.6953 44.979 28.5331C38.2189 28.3952 31.4538 28.5045 24.458 28.5045H24.458ZM24.4118 23.6778H43.8024C43.3724 19.4859 39.8638 15.9628 36.0898 15.7659C29.3485 15.4137 25.5532 17.8805 24.4118 23.6778H24.4118Z" fill="#19294D"/>
<path fill-rule="evenodd" clip-rule="evenodd" d="M141.881 28.4445H116.004C116.329 35.0224 123.567 38.8979 130.203 36.2112C130.846 35.9512 131.7 35.8042 132.057 35.3146C134.479 31.9901 137.493 32.4858 140.658 33.9381C139.811 38.3931 130.704 43.7854 125.236 43.0169C112.36 41.2085 108.277 33.0148 109.111 24.8776C110.125 14.9721 117.64 8.61223 128.736 9.98323C135.847 10.8622 143.61 18.2572 141.881 28.4445ZM135.527 23.7484C134.627 18.7783 130.288 15.1045 124.194 15.7132C120.274 16.105 116.607 19.3013 115.784 23.7484H135.527Z" fill="#19294D"/>
<path d="M211.291 42.3077H204.84C204.84 35.8238 204.844 29.4864 204.838 23.1491C204.834 18.6042 202.216 15.7626 198.049 15.7651C193.538 15.7675 190.684 18.6747 190.671 23.3374C190.652 29.5837 190.666 35.8299 190.666 42.2663H184.987V0.379883H190.678V10.1845C194.564 10.1845 198.204 9.63965 201.608 10.3036C207.69 11.4905 210.683 16.2103 211.16 21.902C211.721 28.6002 211.291 35.381 211.291 42.3077V42.3077Z" fill="#19294D"/>
<path d="M145.985 28.3664C147.783 27.8488 149.479 27.3604 151.516 26.7743C152.924 33.1275 156.478 37.4099 163.314 37.0922C167.008 36.9203 170.298 35.1022 171.996 30.9304C169.95 31.2602 168.233 31.5366 166.242 31.8579V26.9613C169.564 26.3551 173.029 25.5211 176.539 25.2113C177.519 25.1251 179.128 26.3624 179.594 27.3823C180.901 30.2445 181.762 33.3097 182.884 36.5407C181.488 37.2957 180.128 38.0325 178.523 38.9005L176.857 35.4005C171.598 41.5963 165.304 44.6754 157.436 42.0974C151.047 40.0036 147.278 35.3671 145.985 28.3664L145.985 28.3664Z" fill="#19294D"/>
<path d="M0.913517 3.38478H7.22117V10.4572H15.6943V15.7237H7.387C7.387 21.1675 6.98304 26.4115 7.5261 31.5559C7.89906 35.0888 10.9247 36.9056 14.5044 37.3861V43.9659C10.8913 42.053 7.40763 40.9044 4.90623 38.6617C2.94541 36.9032 1.2154 33.8387 1.09031 31.2711C0.639567 22.0434 0.913517 12.78 0.913517 3.38477V3.38478Z" fill="#19294D"/>
</g>
</g>
<defs>
<clipPath id="clip0_2033_740">
<rect width="210.617" height="43.5861" fill="white" transform="translate(0.831055 0.379883)"/>
</clipPath>
<clipPath id="clip1_2033_740">
<rect width="210.617" height="43.5861" fill="white" transform="translate(0.831055 0.379883)"/>
</clipPath>
</defs>
</svg>
