<svg xmlns="http://www.w3.org/2000/svg" width="599.758" height="371.217" viewBox="0 0 599.758 371.217">
  <path id="Path_1787" data-name="Path 1787" d="M1594.991,111.046c27.112-7.837,52.842-15.233,83.735-24.108,21.194,96.2,75.1,161.044,178.517,156.233,56.029-2.6,105.841-30.132,131.6-93.3-31.039,4.993-57.1,9.179-87.229,14.044V89.77c50.271-9.179,102.818-21.808,155.959-26.5,14.845-1.305,39.229,17.429,46.2,32.873,19.83,43.339,32.855,89.752,49.8,138.676-21.041,11.432-41.64,22.589-66.014,35.731l-25.135-53c-79.637,93.817-175.045,140.44-294.064,101.4-96.747-31.7-153.83-101.909-173.368-207.914Z" transform="translate(-1577.747 348.875) rotate(-11)" fill="#fff" opacity="0.17" style="mix-blend-mode: overlay;isolation: isolate"/>
</svg>
