<svg id="Group_1181" data-name="Group 1181" xmlns="http://www.w3.org/2000/svg" width="29.635" height="29.635" viewBox="0 0 29.635 29.635">
  <defs>
    <style>
      .cls-1 {
        fill: #ccfaf9;
      }

      .cls-2 {
        fill: #04e6e0;
        stroke: #04e6e0;
        stroke-width: 0.25px;
        fill-rule: evenodd;
      }
    </style>
  </defs>
  <path id="Path_784" data-name="Path 784" class="cls-1" d="M14.818,0A14.818,14.818,0,1,1,0,14.818,14.818,14.818,0,0,1,14.818,0Z" transform="translate(0)"/>
  <g id="Group_1099" data-name="Group 1099" transform="translate(4.404 7.954)">
    <path id="Path_47" data-name="Path 47" class="cls-2" d="M78.549,6.31a1.464,1.464,0,0,0-.3-.9L76.6,3.3a1.419,1.419,0,0,0-1.117-.53,1.376,1.376,0,0,0-.73.2l-1.609,1a1.469,1.469,0,0,1-.74.18,1.34,1.34,0,0,1-.567-.111l-1.576-.763a1.9,1.9,0,0,0-.822-.173,2.049,2.049,0,0,0-1.157.333l-.184.129-.626-.312a2.361,2.361,0,0,0-1.026-.211,2.455,2.455,0,0,0-.942.173l-1.073.458a2.2,2.2,0,0,1-1.457,0L61.9,3.217a1.564,1.564,0,0,0-.613-.119,1.866,1.866,0,0,0-.7.137,1.585,1.585,0,0,0-.588.4l-1.956,2.19a1.27,1.27,0,0,0,.124,1.815L59.994,9.2l-.865.9a1.29,1.29,0,0,0,.044,1.826l.176.167a1.288,1.288,0,0,0,.572.31,1.275,1.275,0,0,0,.24,1.548h0l.176.168a1.306,1.306,0,0,0,1.4.254A1.277,1.277,0,0,0,62.1,15l.176.168a1.3,1.3,0,0,0,1.615.139,1.282,1.282,0,0,0,.337.554l.176.168a1.3,1.3,0,0,0,1.835-.044l.765-.8,1.039.962a1.3,1.3,0,0,0,1.834-.066l.166-.178a1.281,1.281,0,0,0,.291-.526l.4.372a1.306,1.306,0,0,0,1.835-.068l.165-.178a1.276,1.276,0,0,0,.331-.713,1.27,1.27,0,0,0,1.274-.366l.165-.178a1.285,1.285,0,0,0,.346-.879,1.307,1.307,0,0,0-.036-.29,1.286,1.286,0,0,0,.778-.394l.166-.178a1.291,1.291,0,0,0-.067-1.826l-.31-.287,2.8-3.1a1.473,1.473,0,0,0,.368-.991Zm-18.3,5.438a.589.589,0,0,1-.407-.161l-.176-.167a.587.587,0,0,1-.02-.83l1.772-1.85a.6.6,0,0,1,.835-.02l.175.167a1.11,1.11,0,0,1,.182.425.584.584,0,0,1-.1.332l-1.913,1.994a.6.6,0,0,1-.343.109Zm1.416,1.845a.595.595,0,0,1-.834.02l-.176-.167h0a.589.589,0,0,1-.02-.83s2.363-2.46,2.383-2.483a.592.592,0,0,1,.815,0L64,10.3a.588.588,0,0,1,.02.83ZM63.6,14.639a.594.594,0,0,1-.834.02l-.177-.167a.583.583,0,0,1-.051-.791l1.645-1.717a.59.59,0,0,1,.8.008l.177.168a.588.588,0,0,1,.02.83Zm3.126-.181-1,1.042a.595.595,0,0,1-.834.02l-.176-.167a.588.588,0,0,1-.02-.83l1-1.042a.6.6,0,0,1,.835-.02l.177.167a.588.588,0,0,1,.019.83ZM75.4,11.631a.581.581,0,0,1-.157.4l-.165.178a.595.595,0,0,1-.834.03L71.453,9.66l-.482.516,2.984,2.764a.587.587,0,0,1,.031.83l-.165.178a.595.595,0,0,1-.833.031L70.2,11.4l-.482.516L72.192,14.2a.586.586,0,0,1,.024.822l-.165.178a.6.6,0,0,1-.834.031l-2.47-2.28h0l-.481.517h0l.009.009,1.237,1.142a.581.581,0,0,1,.011.8l-.165.178a.593.593,0,0,1-.832.03l-1.077-1a1.272,1.272,0,0,0-.255-1.519l-.177-.168a1.3,1.3,0,0,0-.895-.355c-.025,0-.05.006-.074.007,0-.006,0-.012,0-.018a2.465,2.465,0,0,0-.4-.936l-.176-.167a1.293,1.293,0,0,0-.653-.333,1.273,1.273,0,0,0-.325-1.363l-.176-.168a1.3,1.3,0,0,0-.9-.356c-.037,0-.074.008-.112.011a1.285,1.285,0,0,0-.4-.895h0l-.176-.167a1.3,1.3,0,0,0-1.835.043l-.418.437L58.631,7.111a.568.568,0,0,1-.055-.812l1.956-2.19a.892.892,0,0,1,.327-.221,1.164,1.164,0,0,1,.43-.084.859.859,0,0,1,.334.063l1.074.458a2.893,2.893,0,0,0,2.015,0l1.073-.458a1.759,1.759,0,0,1,.663-.116,1.686,1.686,0,0,1,.709.137l.286.143L66.348,4.8a1.264,1.264,0,0,0-.288,1.795h0l.145.194a1.413,1.413,0,0,0,1.13.554,1.373,1.373,0,0,0,.707-.193l.655-.393a1.078,1.078,0,0,1,.544-.132,1.132,1.132,0,0,1,.64.18l1.811,1.3a18.087,18.087,0,0,1,1.423,1.161l2.1,1.938a.584.584,0,0,1,.187.43Zm2.258-4.8L74.863,9.917,73.6,8.745A18.651,18.651,0,0,0,72.1,7.528l-1.81-1.3a1.83,1.83,0,0,0-1.054-.313,1.783,1.783,0,0,0-.91.234l-.654.393a.665.665,0,0,1-.342.091.706.706,0,0,1-.562-.269l-.144-.194h0a.561.561,0,0,1,.128-.8l1.935-1.36a1.363,1.363,0,0,1,.748-.2,1.2,1.2,0,0,1,.513.1l1.576.763a2.035,2.035,0,0,0,.877.182,2.155,2.155,0,0,0,1.114-.288l1.61-1a.669.669,0,0,1,.355-.1.714.714,0,0,1,.558.259l1.65,2.111a.768.768,0,0,1,.15.468A.783.783,0,0,1,77.655,6.829Z" transform="translate(-57.722 -2.767)"/>
  </g>
</svg>
