<svg version="1.1" xmlns="http://www.w3.org/2000/svg" xmlns:xlink="http://www.w3.org/1999/xlink" viewBox="0 0 172 172"><g fill="none" fill-rule="nonzero" stroke="none" stroke-width="1" stroke-linecap="butt" stroke-linejoin="miter" stroke-miterlimit="10" stroke-dasharray="" stroke-dashoffset="0" font-family="none" font-weight="none" font-size="none" text-anchor="none" style="mix-blend-mode: normal"><path d="M0,172v-172h172v172z" fill="none"></path><path d="M86,172c-47.49649,0 -86,-38.50351 -86,-86v0c0,-47.49649 38.50351,-86 86,-86v0c47.49649,0 86,38.50351 86,86v0c0,47.49649 -38.50351,86 -86,86z" fill="#e76d7d"></path><g fill="#ffffff"><path d="M78.26,26.66c-4.24289,0 -7.74,3.49711 -7.74,7.74v34.95094l-12.60774,50.73328l-0.01008,0.06047c-0.05039,0.18141 -0.08063,0.37289 -0.08063,0.56437c-0.0907,0.44344 -0.20156,0.86672 -0.20156,1.41094c0,4.24289 3.49711,7.74 7.74,7.74c3.75914,0 6.92367,-2.71101 7.59891,-6.29883l-0.03024,0.13101l7.34695,-29.95219h12.78914l-9.26179,39.96985c-0.05039,0.23179 -0.07055,0.47367 -0.06047,0.70547c-0.14109,0.60469 -0.3225,1.18922 -0.3225,1.89469c0,4.95844 4.07156,9.03 9.03,9.03c4.39406,0 8.09274,-3.18469 8.86875,-7.37719l7.53844,-32.45156l8.35476,32.95547c0.1411,0.57445 0.48375,1.06828 0.95742,1.43109c1.4311,3.07383 4.21266,5.44219 7.82062,5.44219c4.95844,0 9.03,-4.07156 9.03,-9.03c0,-0.59461 -0.12094,-1.07836 -0.22172,-1.57219c0.01008,-0.24188 -0.02016,-0.48375 -0.07055,-0.71555l-13.0411,-49.76578l0.04031,0.20156c-1.94508,-10.85414 -11.43867,-19.09805 -22.82695,-19.09805h-12.9v-30.96c0,-4.24289 -3.49711,-7.74 -7.74,-7.74zM78.26,31.82c1.46133,0 2.58,1.11867 2.58,2.58v33.54c0,1.42101 1.15899,2.58 2.58,2.58h15.48c8.89899,0 16.23586,6.40969 17.74758,14.84508c0.02016,0.07055 0.03024,0.13102 0.05039,0.19149l12.39609,47.33695l2.40867,-0.68531c-1.35047,0.38297 -2.14664,1.77375 -1.79391,3.1343c0.11086,0.38297 0.15117,0.69539 0.15117,0.9675c0,2.1668 -1.7032,3.87 -3.87,3.87c-1.8443,0 -3.33586,-1.25976 -3.74906,-2.96297c-0.02015,-0.12094 -0.06047,-0.2318 -0.11086,-0.34266l-10.89445,-42.92274c-0.29226,-1.1489 -1.33031,-1.95515 -2.51953,-1.94508c-1.18922,0.02016 -2.21719,0.83649 -2.4893,2.00555l-9.95719,42.8925c-0.01008,0.04031 -0.02016,0.08062 -0.03024,0.12094c-0.33258,1.7939 -1.86445,3.15445 -3.78938,3.15445c-2.1668,0 -3.87,-1.7032 -3.87,-3.87c0,-0.36281 0.07055,-0.74578 0.22172,-1.1993c0.22172,-0.66515 0.16125,-1.3807 -0.16125,-2.00554c-0.33258,-0.61477 -0.88688,-1.07836 -1.55203,-1.26985l2.29781,0.645l9.4432,-40.73578c0.18141,-0.76594 0,-1.57219 -0.48375,-2.18696c-0.49383,-0.61476 -1.23961,-0.97758 -2.0257,-0.97758h-18.06c-1.18922,0 -2.21719,0.81633 -2.49938,1.96524l-7.85086,31.91742c-0.01008,0.05039 -0.02015,0.0907 -0.02015,0.14109c-0.2318,1.1993 -1.23961,2.09625 -2.52961,2.09625c-1.46133,0 -2.58,-1.11867 -2.58,-2.58c0,-0.16125 0.03024,-0.37289 0.11086,-0.68531c0.01008,-0.01008 0.01008,-0.03024 0.01008,-0.05039l12.69844,-51.10617c0.05039,-0.20156 0.08062,-0.40312 0.08062,-0.61476v-35.26336c0,-1.46133 1.11867,-2.58 2.58,-2.58zM51.17,60.2c-7.81055,0 -14.19,6.37945 -14.19,14.19c0,7.81055 6.37945,14.19 14.19,14.19c7.81055,0 14.19,-6.37945 14.19,-14.19c0,-7.81055 -6.37945,-14.19 -14.19,-14.19zM51.17,65.36c5.01891,0 9.03,4.0111 9.03,9.03c0,5.01891 -4.01109,9.03 -9.03,9.03c-5.0189,0 -9.03,-4.01109 -9.03,-9.03c0,-5.0189 4.0111,-9.03 9.03,-9.03z"></path></g></g></svg>