<svg xmlns="http://www.w3.org/2000/svg" width="599.758" height="371.217" viewBox="0 0 599.758 371.217">
  <path id="Path_1788" data-name="Path 1788" d="M0,47.839C27.112,40,52.842,32.606,83.735,23.731c21.194,96.2,75.1,161.044,178.516,156.233,56.029-2.6,105.841-30.132,131.6-93.3-31.039,4.993-57.1,9.179-87.228,14.044V26.563C356.89,17.384,409.437,4.755,462.578.065c14.845-1.305,39.229,17.429,46.2,32.873,19.83,43.339,32.855,89.752,49.8,138.676-21.041,11.432-41.64,22.589-66.014,35.731l-25.135-53c-79.637,93.817-175.045,140.44-294.064,101.4C76.621,224.049,19.538,153.843,0,47.839Z" transform="translate(599.758 264.635) rotate(169)" fill="#fff" opacity="0.17" style="mix-blend-mode: overlay;isolation: isolate"/>
</svg>
