<svg xmlns="http://www.w3.org/2000/svg" xmlns:xlink="http://www.w3.org/1999/xlink" width="155" height="82.028" viewBox="0 0 155 82.028">
  <defs>
    <clipPath id="clip-path">
      <rect id="Rectangle_1179" data-name="Rectangle 1179" width="155" height="46.83" fill="#161f46"/>
    </clipPath>
    <clipPath id="clip-path-2">
      <rect id="Rectangle_1177" data-name="Rectangle 1177" width="30.354" height="42.496" fill="#fff"/>
    </clipPath>
    <clipPath id="clip-path-3">
      <rect id="Rectangle_1178" data-name="Rectangle 1178" width="42.351" height="46.83" fill="#fff"/>
    </clipPath>
    <clipPath id="clip-path-4">
      <rect id="Rectangle_1173" data-name="Rectangle 1173" width="61.851" height="12.8" transform="translate(0 0)" fill="#fff"/>
    </clipPath>
  </defs>
  <g id="Group_2323" data-name="Group 2323" transform="translate(-1696.9 -38.402)">
    <g id="Group_2274" data-name="Group 2274" transform="translate(1696.9 38.402)" clip-path="url(#clip-path)">
      <g id="Group_2272" data-name="Group 2272" transform="translate(52.498 2.164)" clip-path="url(#clip-path-2)">
        <path id="Path_953" data-name="Path 953" d="M1800.257,43.537a4.553,4.553,0,1,0-9.105,0V61.291l-1.321-2.072a4.55,4.55,0,1,0-7.676,4.889l9.711,15.263a.2.2,0,0,0,.04.057l.06.1q.1.14.208.27l.03.035a2.552,2.552,0,0,0,.268.3.143.143,0,0,0,.04.035,4.367,4.367,0,0,0,.625.521.217.217,0,0,1,.05.034c.109.071.219.138.328.2l.03.013a3.529,3.529,0,0,0,.338.164,1.071,1.071,0,0,0,.109.046c.109.045.219.087.338.124.03.01.06.018.089.027.1.029.2.054.3.076.04.008.079.017.109.025.129.024.258.043.377.057l.089.007c.139.013.278.022.417.022s.278-.009.427-.022l.079-.009c.129-.014.258-.033.387-.059l.03-.005c.129-.027.258-.062.387-.1.04-.011.069-.023.109-.035q.134-.046.268-.1l.119-.048c.119-.051.228-.1.347-.165.03-.015.05-.033.079-.048.069-.039.139-.078.208-.12.01-.009.03-.02.04-.03a2.628,2.628,0,0,0,.219-.155c.049-.039.109-.076.159-.116s.109-.095.159-.143.119-.105.179-.161c.04-.038.069-.079.109-.119a2.617,2.617,0,0,0,.189-.208l.089-.113c.059-.078.119-.155.179-.237l.089-.151a2.323,2.323,0,0,0,.139-.218c.04-.073.07-.15.109-.225a1.291,1.291,0,0,1,.08-.163,2.71,2.71,0,0,0,.1-.275.712.712,0,0,0,.05-.134c.03-.089.05-.18.079-.271.01-.053.03-.106.04-.159.01-.077.03-.156.04-.235l.03-.215c.01-.064.01-.129.02-.193,0-.09.01-.179.01-.269V43.537Z" transform="translate(-1769.902 -38.983)" fill="#fff"/>
        <path id="Path_954" data-name="Path 954" d="M1769.82,76.927a4.553,4.553,0,1,0,9.105,0V59.173l5.749,9.066a4.554,4.554,0,0,0,7.685-4.889l-14.14-22.257a.2.2,0,0,1-.04-.056c-.02-.033-.05-.065-.07-.1a3.237,3.237,0,0,0-.2-.271l-.03-.035a4.08,4.08,0,0,0-.278-.3l-.03-.035a4.412,4.412,0,0,0-.635-.521.22.22,0,0,0-.05-.034c-.109-.071-.219-.138-.328-.2-.01,0-.01-.009-.02-.013-.109-.06-.228-.113-.337-.164-.04-.016-.08-.031-.109-.046-.119-.045-.228-.088-.348-.125l-.089-.027q-.149-.043-.3-.076c-.03-.008-.07-.017-.109-.025-.129-.025-.248-.043-.377-.058l-.079-.007c-.139-.013-.278-.022-.427-.022s-.278.009-.417.022l-.079.008c-.129.015-.258.033-.387.059l-.03.005c-.129.027-.268.061-.4.1-.03.01-.069.023-.1.035-.1.03-.189.064-.278.1l-.119.048a3.447,3.447,0,0,0-.338.165c-.03.015-.06.033-.089.048a2.159,2.159,0,0,0-.2.12c-.02.009-.03.02-.05.03-.07.049-.139.1-.219.156-.05.038-.1.076-.149.116s-.109.094-.169.142-.119.105-.179.161a1.313,1.313,0,0,1-.109.119c-.06.069-.129.137-.189.209-.03.036-.059.075-.089.112-.06.078-.119.156-.169.237a1.232,1.232,0,0,0-.1.151c-.04.072-.089.143-.129.218a2.069,2.069,0,0,0-.109.226,1.16,1.16,0,0,0-.08.163c-.04.09-.07.182-.109.275a.769.769,0,0,1-.049.135,2.454,2.454,0,0,0-.07.27c-.01.053-.03.106-.04.16a1.863,1.863,0,0,0-.04.235,1.575,1.575,0,0,0-.04.215c0,.064-.01.129-.01.193-.01.09-.01.179-.02.269v33.44Z" transform="translate(-1769.82 -38.983)" fill="#fff"/>
      </g>
      <path id="Path_955" data-name="Path 955" d="M1757.728,38.983a4.559,4.559,0,0,0-4.558,4.553V76.926a4.553,4.553,0,1,0,9.105,0V43.537A4.55,4.55,0,0,0,1757.728,38.983Z" transform="translate(-1717.205 -36.82)" fill="#fff"/>
      <path id="Path_956" data-name="Path 956" d="M1745.567,43.472a4.553,4.553,0,1,0-9.105,0V61.226l-1.321-2.072a4.554,4.554,0,0,0-7.685,4.889l9.711,15.264c.01.019.03.037.04.056s.05.065.069.1a3.193,3.193,0,0,0,.2.27l.029.035c.09.105.179.2.269.3a.14.14,0,0,1,.04.035,4.435,4.435,0,0,0,.635.521.2.2,0,0,0,.05.034c.109.071.219.138.327.2.01,0,.01.009.02.014.109.059.228.113.338.163.04.016.079.031.109.046.119.045.229.088.337.124.04.01.07.018.1.027.1.028.2.053.288.075l.119.025c.119.025.248.043.377.057l.079.008c.139.013.278.021.427.021s.278-.009.417-.022l.079-.009c.129-.014.259-.033.388-.058l.03-.006c.129-.027.258-.061.387-.1a1.088,1.088,0,0,0,.109-.035c.1-.03.188-.064.278-.1l.119-.048c.109-.051.229-.1.338-.165.03-.015.06-.032.089-.048a2.088,2.088,0,0,0,.2-.121.133.133,0,0,0,.04-.03c.08-.049.149-.1.229-.155.05-.039.1-.076.149-.116s.109-.094.169-.143a2.179,2.179,0,0,0,.169-.161c.04-.039.08-.08.119-.119.06-.069.129-.137.189-.209a.753.753,0,0,0,.079-.112,1.634,1.634,0,0,0,.179-.237,1.215,1.215,0,0,0,.1-.151c.04-.072.09-.144.129-.218a2.166,2.166,0,0,0,.109-.225,1.168,1.168,0,0,0,.079-.163c.04-.089.07-.182.109-.275a.766.766,0,0,1,.05-.134c.02-.089.05-.18.07-.27.01-.054.03-.106.04-.16a1.922,1.922,0,0,0,.04-.234c.01-.072.03-.143.04-.215s.01-.129.01-.193a2.4,2.4,0,0,0,.01-.268c0-.017.01-.034.01-.051Z" transform="translate(-1717.019 -36.819)" fill="#fff"/>
      <path id="Path_957" data-name="Path 957" d="M1716.95,43.472a4.553,4.553,0,1,1,9.105,0V61.226l1.321-2.072a4.554,4.554,0,0,1,7.685,4.889l-9.721,15.264-.03.056a.59.59,0,0,0-.069.1c-.07.093-.129.183-.2.27l-.03.035a3.988,3.988,0,0,1-.278.3l-.03.035a4.449,4.449,0,0,1-.636.521c-.02.011-.03.023-.05.034-.109.071-.219.138-.328.2-.01,0-.02.009-.02.014-.119.059-.229.113-.347.163a.985.985,0,0,1-.109.046c-.109.045-.218.088-.338.124l-.09.027q-.149.042-.3.075c-.04.008-.069.017-.109.025-.129.025-.248.043-.377.057l-.079.008c-.149.013-.288.021-.427.021s-.278-.009-.417-.022l-.089-.009c-.129-.014-.258-.033-.387-.058l-.03-.006c-.129-.027-.258-.061-.387-.1-.029-.011-.069-.023-.109-.035-.089-.03-.179-.064-.268-.1l-.119-.048c-.119-.051-.228-.1-.348-.165a.6.6,0,0,0-.079-.048c-.07-.039-.139-.078-.209-.121a.137.137,0,0,0-.04-.03c-.07-.049-.149-.1-.219-.155-.05-.039-.1-.076-.159-.116s-.109-.094-.159-.143-.119-.105-.179-.161c-.04-.039-.07-.08-.109-.119-.069-.069-.129-.137-.189-.209-.03-.036-.059-.075-.089-.112-.06-.078-.119-.155-.179-.237-.03-.049-.06-.1-.089-.151a2.255,2.255,0,0,1-.129-.218c-.04-.073-.08-.15-.119-.225-.02-.055-.05-.108-.069-.163a2.8,2.8,0,0,1-.109-.275c-.02-.045-.03-.089-.049-.134a2.483,2.483,0,0,1-.069-.27.932.932,0,0,1-.04-.16c-.02-.077-.03-.156-.05-.234l-.03-.215a1.263,1.263,0,0,1-.01-.193,2.449,2.449,0,0,1-.02-.268V43.472Z" transform="translate(-1716.95 -36.819)" fill="#fff"/>
      <g id="Group_2273" data-name="Group 2273" transform="translate(90.121)" clip-path="url(#clip-path-3)">
        <path id="Path_958" data-name="Path 958" d="M1832.683,80.559V83.72h-11.022V81.532h-9.4a4.473,4.473,0,0,1-3.207-1.332,4.641,4.641,0,0,1-.556-.659v-.015a5.287,5.287,0,0,1-.586-1.193A4.244,4.244,0,0,1,1807.72,77V49.053a6.98,6.98,0,0,0,4.538,1.661h4.558V72.428h9.512a1.2,1.2,0,0,1,.218.015c.219-.007.427-.036.655-.051l-1.35,1.339Z" transform="translate(-1807.71 -36.89)" fill="#fff"/>
        <path id="Path_959" data-name="Path 959" d="M1850.059,55.064V65.485H1846.9a21.546,21.546,0,0,1-1.5,4.018,10.136,10.136,0,0,1-7.1-7.348,12.556,12.556,0,0,0,.169-1.94,12.157,12.157,0,0,0-11.935-12.134c-.069,0-.139.007-.209.007h-14.07a4.552,4.552,0,0,1,0-9.1h7.06V36.8h11.012v2.554a20.8,20.8,0,0,1,6.97,2.671l1.986-1.991.854.842v.007l5.511,5.511c.188.263.367.527.556.8.06-.015.139-.022.208-.036l.238.249-2.036,2.034a20.488,20.488,0,0,1,2.323,5.621Z" transform="translate(-1807.71 -36.804)" fill="#fff"/>
        <path id="Path_960" data-name="Path 960" d="M1846.685,47.228c-.069.015-.149.022-.208.036-.188-.27-.367-.534-.556-.8Z" transform="translate(-1807.979 -36.872)" fill="#fff"/>
      </g>
      <path id="Path_961" data-name="Path 961" d="M1869.676,55.268a20.9,20.9,0,0,0-2.443-5.957l1.609-1.625.526-.527-.526-.52-6.117-6.126-.526-.527-.526.527-1.559,1.581a21.257,21.257,0,0,0-6.077-2.525c.08.015.159.029.228.044V36.8h-10.714v2.89l-.01.007c-.377.1-.735.207-1.082.32l6.911,6.907a13.3,13.3,0,1,1-13.4,15.907c-.05-.256-.08-.5-.119-.761l.059-.329a8.8,8.8,0,0,0,.139-1.522,9.763,9.763,0,0,0-.188-1.881c0,.015-.01.022-.01.036v-.036a9.651,9.651,0,0,0-6.067-7.114,22.322,22.322,0,0,0-1.4,3.959.957.957,0,0,1,.04-.161h-3.1V65.17h3.019a21.081,21.081,0,0,0,1.629,4.479c.258.512.536,1.017.824,1.508l-1.589,1.6-.526.527.526.52,6.127,6.125.517.527,2.1-2.1c.367.227.765.447,1.152.651a20.9,20.9,0,0,0,4.677,1.808v2.825H1854.5v-2.89a21.144,21.144,0,0,0,5.59-2.4l1.579,1.581.526.527.526-.527,6.117-6.125.526-.52-2.135-2.137a20.822,20.822,0,0,0,2.383-5.731h2.353v.007h.745V55.268Z" transform="translate(-1717.714 -36.804)" fill="#fff"/>
    </g>
    <g id="Group_2271" data-name="Group 2271" transform="translate(1706.9 85.265)">
      <text id="זירת_שיתופי_הפעולה_של_" data-name="זירת שיתופי הפעולה
       של     " transform="translate(118 14.165)" fill="#fff" font-size="16" font-family="'PloniDL1\.1AAA-D-Bold', 'Ploni DL \31 \.1 AAA'" font-weight="700"><tspan x="-127" y="0">זירת שיתופי הפעולה</tspan><tspan y="0"></tspan><tspan x="-69" y="16" xml:space="preserve">       </tspan><tspan y="16">של</tspan><tspan y="16" xml:space="preserve">     </tspan></text>
      <g id="Group_2266" data-name="Group 2266" transform="translate(12.798 18.4)" clip-path="url(#clip-path-4)">
        <g id="Group_2265" data-name="Group 2265" transform="translate(0 0)" clip-path="url(#clip-path-4)">
          <path id="Path_938" data-name="Path 938" d="M1514.44,57.076h-1.9c0-1.857.006-3.685,0-5.513a2.371,2.371,0,0,0-1.8-2.293,2.074,2.074,0,0,0-2.361,2.115c-.012,1.865,0,3.731,0,5.659h-1.838V47.761c1.6-.072,3.2-.243,4.8-.17a6.708,6.708,0,0,1,2.088.882,24.837,24.837,0,0,1,2.434-.965,3.739,3.739,0,0,1,4.458,3.138c.012.148,0,.3,0,.445v5.942H1518.6c0-1.67.015-3.378-.012-5.086a4.332,4.332,0,0,0-.241-1.369,2.165,2.165,0,0,0-2.261-1.3,2.115,2.115,0,0,0-1.647,2.019c-.015.949,0,1.9,0,2.848v2.931Z" transform="translate(-1489.886 -44.75)" fill="#fff"/>
          <path id="Path_939" data-name="Path 939" d="M1468.71,53.234a2.914,2.914,0,0,0,4.672,1.939,2.382,2.382,0,0,1,2.6-.351,2.648,2.648,0,0,1-1.674,1.9,5.372,5.372,0,0,1-5.556-.129c-2.253-1.4-2.549-4.826-1.257-6.71a4.731,4.731,0,0,1,5.01-2.074,4.39,4.39,0,0,1,3.706,3.335c.488,1.968.843,2.145-1.48,2.1-1.985-.04-3.973-.008-6.026-.008Zm-.015-1.417h5.694a2.589,2.589,0,0,0-2.264-2.323c-1.979-.1-3.1.621-3.43,2.323Z" transform="translate(-1461.77 -44.975)" fill="#fff" fill-rule="evenodd"/>
          <path id="Path_940" data-name="Path 940" d="M1567.661,53.274h-7.6a2.91,2.91,0,0,0,4.17,2.281c.191-.076.441-.12.546-.263.711-.976,1.595-.831,2.526-.4-.249,1.308-2.925,2.892-4.528,2.666-3.782-.531-4.98-2.937-4.737-5.327.3-2.909,2.505-4.777,5.765-4.374A4.664,4.664,0,0,1,1567.661,53.274Zm-1.865-1.379a2.954,2.954,0,0,0-5.8,0Z" transform="translate(-1526.239 -45.032)" fill="#fff" fill-rule="evenodd"/>
          <path id="Path_941" data-name="Path 941" d="M1641.714,50.693h-1.894V45.066a1.941,1.941,0,0,0-1.994-2.168,2.047,2.047,0,0,0-2.167,2.224c-.006,1.834,0,3.669,0,5.559h-1.668V38.38h1.671v2.879a17.5,17.5,0,0,1,3.21.035,3.47,3.47,0,0,1,2.8,3.406c.164,1.967.038,3.958.038,5.992Z" transform="translate(-1579.908 -38.38)" fill="#fff"/>
          <path id="Path_942" data-name="Path 942" d="M1594.99,64.135l1.624-.468c.411,1.866,1.457,3.123,3.462,3.03a2.752,2.752,0,0,0,2.552-1.81l-1.692.272V63.722c.975-.178,1.994-.423,3.025-.514a1.206,1.206,0,0,1,.9.638c.385.841.637,1.741.966,2.69-.408.222-.807.438-1.28.693l-.488-1.028c-1.545,1.82-3.395,2.724-5.7,1.967a4.819,4.819,0,0,1-3.362-4.032Z" transform="translate(-1552.362 -55.916)" fill="#fff"/>
          <path id="Path_943" data-name="Path 943" d="M1449.853,41.385h1.853v2.077h2.487v1.547h-2.437a44.4,44.4,0,0,0,.041,4.649c.108,1.037,1,1.571,2.047,1.712V53.3a14.239,14.239,0,0,1-2.816-1.558,3.5,3.5,0,0,1-1.122-2.17c-.132-2.71-.053-5.43-.053-8.189Z" transform="translate(-1449.83 -40.502)" fill="#fff"/>
        </g>
      </g>
    </g>
  </g>
</svg>
